<svg xmlns="http://www.w3.org/2000/svg" width="41" height="32">
    <defs>
        <linearGradient id="z0sbzc7lda" x1="0%" x2="73.135%" y1="68.2%" y2="0%">
            <stop offset="0%" stop-color="#6AF4F9"/>
            <stop offset="100%" stop-color="#2EB0EC"/>
        </linearGradient>
    </defs>
    <path fill="#FFF" fill-rule="evenodd" d="M38.437 31.999H2.562C1.147 31.999 0 30.853 0 29.439V2.56C0 1.146 1.147-.001 2.562-.001h35.875C39.853-.001 41 1.146 41 2.56v26.879c0 1.414-1.147 2.56-2.563 2.56zm0-28.16c0-.707-.573-1.279-1.281-1.279H3.844c-.708 0-1.282.572-1.282 1.279v3.84c0 .707.574 1.28 1.282 1.28h33.312c.708 0 1.281-.573 1.281-1.28v-3.84zm0 7.68c0-.706-.573-1.28-1.281-1.28H3.844c-.708 0-1.282.574-1.282 1.28v16.64c0 .708.574 1.28 1.282 1.28h33.312c.708 0 1.281-.572 1.281-1.28v-16.64zm-3.203-3.84c-1.061 0-1.922-.859-1.922-1.92 0-1.06.861-1.92 1.922-1.92 1.062 0 1.922.86 1.922 1.92 0 1.061-.86 1.92-1.922 1.92zm0-2.6c-.376 0-.68.305-.68.68 0 .376.304.68.68.68.376 0 .681-.304.681-.68 0-.375-.305-.68-.681-.68zm-5.125 2.6c-1.061 0-1.922-.859-1.922-1.92 0-1.06.861-1.92 1.922-1.92 1.062 0 1.922.86 1.922 1.92 0 1.061-.86 1.92-1.922 1.92zm0-2.6c-.376 0-.68.305-.68.68 0 .376.304.68.68.68.376 0 .681-.304.681-.68 0-.375-.305-.68-.681-.68zm-4.484 2.6h-20.5c-.708 0-1.281-.573-1.281-1.279V5.119c0-.706.573-1.28 1.281-1.28h20.5c.708 0 1.281.574 1.281 1.28V6.4c0 .706-.573 1.279-1.281 1.279zm-.042-2.137c0-.24-.195-.435-.436-.435H5.602c-.24 0-.435.195-.435.435v.435c0 .24.195.434.435.434h19.545c.241 0 .436-.194.436-.434v-.435z"/>
    <path fill="url(#z0sbzc7lda)" d="M38.437 31.999H2.562C1.147 31.999 0 30.853 0 29.439V2.56C0 1.146 1.147-.001 2.562-.001h35.875C39.853-.001 41 1.146 41 2.56v26.879c0 1.414-1.147 2.56-2.563 2.56zm0-28.16c0-.707-.573-1.279-1.281-1.279H3.844c-.708 0-1.282.572-1.282 1.279v3.84c0 .707.574 1.28 1.282 1.28h33.312c.708 0 1.281-.573 1.281-1.28v-3.84zm0 7.68c0-.706-.573-1.28-1.281-1.28H3.844c-.708 0-1.282.574-1.282 1.28v16.64c0 .708.574 1.28 1.282 1.28h33.312c.708 0 1.281-.572 1.281-1.28v-16.64zm-3.203-3.84c-1.061 0-1.922-.859-1.922-1.92 0-1.06.861-1.92 1.922-1.92 1.062 0 1.922.86 1.922 1.92 0 1.061-.86 1.92-1.922 1.92zm0-2.6c-.376 0-.68.305-.68.68 0 .376.304.68.68.68.376 0 .681-.304.681-.68 0-.375-.305-.68-.681-.68zm-5.125 2.6c-1.061 0-1.922-.859-1.922-1.92 0-1.06.861-1.92 1.922-1.92 1.062 0 1.922.86 1.922 1.92 0 1.061-.86 1.92-1.922 1.92zm0-2.6c-.376 0-.68.305-.68.68 0 .376.304.68.68.68.376 0 .681-.304.681-.68 0-.375-.305-.68-.681-.68zm-4.484 2.6h-20.5c-.708 0-1.281-.573-1.281-1.279V5.119c0-.706.573-1.28 1.281-1.28h20.5c.708 0 1.281.574 1.281 1.28V6.4c0 .706-.573 1.279-1.281 1.279zm-.042-2.137c0-.24-.195-.435-.436-.435H5.602c-.24 0-.435.195-.435.435v.435c0 .24.195.434.435.434h19.545c.241 0 .436-.194.436-.434v-.435z"/>
</svg>
