<svg xmlns="http://www.w3.org/2000/svg" width="45" height="40">
    <defs>
        <linearGradient id="n612krujaa" x1="0%" x2="73.135%" y1="68.2%" y2="0%">
            <stop offset="0%" stop-color="#6AF4F9"/>
            <stop offset="100%" stop-color="#2EB0EC"/>
        </linearGradient>
    </defs>
    <path fill="#FFF" fill-rule="evenodd" d="M42.187 24.827s-12.987.088-20.861.901c-3.687.381-7.155 1.387-8.267 1.731l.441 2.885h27.281c.777 0 1.406.618 1.406 1.38 0 .761-.629 1.379-1.406 1.379H13.535c-1.553 0-2.812-1.236-2.812-2.759l-.352-2.069-.416-2.722c-.065-.233-.111-.473-.111-.726L7.031 5.516l-.469-2.758H1.406C.63 2.758 0 2.14 0 1.379c0-.762.63-1.38 1.406-1.38h5.625c.125 0 .237.039.352.07.115-.031.227-.07.351-.07.777 0 1.407.618 1.407 1.38l.242 1.425c.15-.025.303-.046.461-.046h32.343C43.741 2.758 45 3.993 45 5.516v16.552c0 1.524-1.259 2.759-2.813 2.759zm0-17.931c0-.762-.629-1.38-1.406-1.38h-29.18c-.776 0-1.406.618-1.406 1.38l2.344 16.092c0 .762.63 1.379 1.406 1.379 0 0 2.277-.959 6.452-1.441 7.01-.809 20.384-.858 20.384-.858.777 0 1.406-.618 1.406-1.38V6.896zM16.875 34.482c1.553 0 2.812 1.235 2.812 2.759 0 1.523-1.259 2.759-2.812 2.759s-2.813-1.236-2.813-2.759c0-1.524 1.26-2.759 2.813-2.759zm0 4.138c.777 0 1.406-.617 1.406-1.379s-.629-1.379-1.406-1.379c-.777 0-1.406.617-1.406 1.379s.629 1.379 1.406 1.379zm19.687-4.138c1.554 0 2.813 1.235 2.813 2.759 0 1.523-1.259 2.759-2.813 2.759-1.553 0-2.812-1.236-2.812-2.759 0-1.524 1.259-2.759 2.812-2.759zm0 4.138c.777 0 1.407-.617 1.407-1.379s-.63-1.379-1.407-1.379c-.776 0-1.406.617-1.406 1.379s.63 1.379 1.406 1.379z"/>
    <path fill="url(#n612krujaa)" d="M42.187 24.827s-12.987.088-20.861.901c-3.687.381-7.155 1.387-8.267 1.731l.441 2.885h27.281c.777 0 1.406.618 1.406 1.38 0 .761-.629 1.379-1.406 1.379H13.535c-1.553 0-2.812-1.236-2.812-2.759l-.352-2.069-.416-2.722c-.065-.233-.111-.473-.111-.726L7.031 5.516l-.469-2.758H1.406C.63 2.758 0 2.14 0 1.379c0-.762.63-1.38 1.406-1.38h5.625c.125 0 .237.039.352.07.115-.031.227-.07.351-.07.777 0 1.407.618 1.407 1.38l.242 1.425c.15-.025.303-.046.461-.046h32.343C43.741 2.758 45 3.993 45 5.516v16.552c0 1.524-1.259 2.759-2.813 2.759zm0-17.931c0-.762-.629-1.38-1.406-1.38h-29.18c-.776 0-1.406.618-1.406 1.38l2.344 16.092c0 .762.63 1.379 1.406 1.379 0 0 2.277-.959 6.452-1.441 7.01-.809 20.384-.858 20.384-.858.777 0 1.406-.618 1.406-1.38V6.896zM16.875 34.482c1.553 0 2.812 1.235 2.812 2.759 0 1.523-1.259 2.759-2.812 2.759s-2.813-1.236-2.813-2.759c0-1.524 1.26-2.759 2.813-2.759zm0 4.138c.777 0 1.406-.617 1.406-1.379s-.629-1.379-1.406-1.379c-.777 0-1.406.617-1.406 1.379s.629 1.379 1.406 1.379zm19.687-4.138c1.554 0 2.813 1.235 2.813 2.759 0 1.523-1.259 2.759-2.813 2.759-1.553 0-2.812-1.236-2.812-2.759 0-1.524 1.259-2.759 2.812-2.759zm0 4.138c.777 0 1.407-.617 1.407-1.379s-.63-1.379-1.407-1.379c-.776 0-1.406.617-1.406 1.379s.63 1.379 1.406 1.379z"/>
</svg>
