<svg xmlns="http://www.w3.org/2000/svg" width="46" height="33">
    <defs>
        <linearGradient id="gspsekfhna" x1="0%" x2="73.135%" y1="68.2%" y2="0%">
            <stop offset="0%" stop-color="#6AF4F9"/>
            <stop offset="100%" stop-color="#2EB0EC"/>
        </linearGradient>
    </defs>
    <path fill="#FFF" fill-rule="evenodd" d="M41.687 32.999c-2.481 0-5.57-4.324-5.57-4.66 0-.142-.817-1.385-1.788-3.124-1.063 1.094-2.525 1.772-4.142 1.772-2.2 0-4.095-1.268-5.105-3.124h-4.167c-1.01 1.854-2.904 3.121-5.103 3.121-1.615 0-3.077-.678-4.14-1.772-.971 1.741-1.789 2.985-1.789 3.127 0 .336-3.09 4.66-5.571 4.66S0 30.913 0 28.339C0 25.913 2.263 6.888 4.599 4.688c.462-1.005 1.443-1.705 2.588-1.705h.009c-.001-.033-.009-.062-.009-.094 0-1.596 1.247-2.89 2.786-2.89h5.929c1.538 0 2.785 1.294 2.785 2.89 0 .032-.008.061-.009.094h8.643c-.001-.033-.009-.062-.009-.094 0-1.596 1.247-2.89 2.786-2.89h5.929c1.538 0 2.785 1.294 2.785 2.89 0 .032-.008.061-.009.094h.009c1.146 0 2.126.7 2.589 1.705C43.737 6.888 46 25.913 46 28.339c0 2.574-1.832 4.66-4.313 4.66zm-11.5-9.136c1.588 0 2.875-1.335 2.875-2.982 0-1.648-1.287-2.984-2.875-2.984-1.587 0-2.875 1.336-2.875 2.984 0 1.647 1.288 2.982 2.875 2.982zm-14.375 0c1.588 0 2.875-1.335 2.875-2.982 0-1.648-1.287-2.984-2.875-2.984-1.587 0-2.875 1.336-2.875 2.984 0 1.647 1.288 2.982 2.875 2.982zm27.363 1.919c-.083-1.672-3.105-19.336-4.406-19.266-.056.003-.133.055-.219.131-.258-.401-.676-.682-1.175-.682h-1.438V4.474c0-.824-.643-1.491-1.437-1.491h-2.875c-.794 0-1.438.667-1.438 1.491v1.491H15.812V4.474c0-.824-.643-1.491-1.437-1.491H11.5c-.794 0-1.438.667-1.438 1.491v1.491H8.625c-.499 0-.918.281-1.175.682-.086-.076-.163-.128-.219-.131-1.302-.07-4.323 17.594-4.406 19.266-.084 1.672.184 3.83 1.485 3.9 1.301.07 3.601-3.397 3.612-3.616.01-.193 2.63-3.668 3.549-6.677h.012c.606-1.891 2.304-3.262 4.329-3.262 2.531 0 4.582 2.128 4.582 4.754h5.211c0-2.626 2.052-4.754 4.582-4.754 2.026 0 3.724 1.371 4.33 3.262h.012c.919 3.009 3.539 6.484 3.549 6.677.011.219 2.31 3.686 3.611 3.616 1.302-.07 1.57-2.228 1.486-3.9zm-7.956-13.804c-1.216 0-2.202-1.022-2.202-2.284 0-1.261.986-2.284 2.202-2.284 1.215 0 2.201 1.023 2.201 2.284 0 1.262-.986 2.284-2.201 2.284zm0-3.053c-.41 0-.742.344-.742.769 0 .425.332.769.742.769.409 0 .741-.344.741-.769 0-.425-.332-.769-.741-.769zm-5.75 6.036c-1.216 0-2.202-1.023-2.202-2.284s.986-2.283 2.202-2.283c1.215 0 2.201 1.022 2.201 2.283s-.986 2.284-2.201 2.284zm0-3.052c-.41 0-.742.343-.742.768s.332.77.742.77c.409 0 .741-.345.741-.77 0-.425-.332-.768-.741-.768zm-15.094 1.514c0 .824-.644 1.491-1.438 1.491H11.5c-.794 0-1.438-.667-1.438-1.491-.794 0-1.437-.668-1.437-1.492V10.44c0-.824.643-1.491 1.437-1.491 0-.825.644-1.492 1.438-1.492h1.437c.794 0 1.438.667 1.438 1.492.794 0 1.437.667 1.437 1.491v1.491c0 .824-.643 1.492-1.437 1.492zm-.719-2.983h-.719v-.746c0-.411-.321-.745-.718-.745-.397 0-.719.334-.719.745v.746h-.719c-.397 0-.719.334-.719.745 0 .412.322.746.719.746h.719v.746c0 .412.322.746.719.746.397 0 .718-.334.718-.746v-.746h.719c.397 0 .719-.334.719-.746 0-.411-.322-.745-.719-.745z"/>
    <path fill="url(#gspsekfhna)" d="M41.687 32.999c-2.481 0-5.57-4.324-5.57-4.66 0-.142-.817-1.385-1.788-3.124-1.063 1.094-2.525 1.772-4.142 1.772-2.2 0-4.095-1.268-5.105-3.124h-4.167c-1.01 1.854-2.904 3.121-5.103 3.121-1.615 0-3.077-.678-4.14-1.772-.971 1.741-1.789 2.985-1.789 3.127 0 .336-3.09 4.66-5.571 4.66S0 30.913 0 28.339C0 25.913 2.263 6.888 4.599 4.688c.462-1.005 1.443-1.705 2.588-1.705h.009c-.001-.033-.009-.062-.009-.094 0-1.596 1.247-2.89 2.786-2.89h5.929c1.538 0 2.785 1.294 2.785 2.89 0 .032-.008.061-.009.094h8.643c-.001-.033-.009-.062-.009-.094 0-1.596 1.247-2.89 2.786-2.89h5.929c1.538 0 2.785 1.294 2.785 2.89 0 .032-.008.061-.009.094h.009c1.146 0 2.126.7 2.589 1.705C43.737 6.888 46 25.913 46 28.339c0 2.574-1.832 4.66-4.313 4.66zm-11.5-9.136c1.588 0 2.875-1.335 2.875-2.982 0-1.648-1.287-2.984-2.875-2.984-1.587 0-2.875 1.336-2.875 2.984 0 1.647 1.288 2.982 2.875 2.982zm-14.375 0c1.588 0 2.875-1.335 2.875-2.982 0-1.648-1.287-2.984-2.875-2.984-1.587 0-2.875 1.336-2.875 2.984 0 1.647 1.288 2.982 2.875 2.982zm27.363 1.919c-.083-1.672-3.105-19.336-4.406-19.266-.056.003-.133.055-.219.131-.258-.401-.676-.682-1.175-.682h-1.438V4.474c0-.824-.643-1.491-1.437-1.491h-2.875c-.794 0-1.438.667-1.438 1.491v1.491H15.812V4.474c0-.824-.643-1.491-1.437-1.491H11.5c-.794 0-1.438.667-1.438 1.491v1.491H8.625c-.499 0-.918.281-1.175.682-.086-.076-.163-.128-.219-.131-1.302-.07-4.323 17.594-4.406 19.266-.084 1.672.184 3.83 1.485 3.9 1.301.07 3.601-3.397 3.612-3.616.01-.193 2.63-3.668 3.549-6.677h.012c.606-1.891 2.304-3.262 4.329-3.262 2.531 0 4.582 2.128 4.582 4.754h5.211c0-2.626 2.052-4.754 4.582-4.754 2.026 0 3.724 1.371 4.33 3.262h.012c.919 3.009 3.539 6.484 3.549 6.677.011.219 2.31 3.686 3.611 3.616 1.302-.07 1.57-2.228 1.486-3.9zm-7.956-13.804c-1.216 0-2.202-1.022-2.202-2.284 0-1.261.986-2.284 2.202-2.284 1.215 0 2.201 1.023 2.201 2.284 0 1.262-.986 2.284-2.201 2.284zm0-3.053c-.41 0-.742.344-.742.769 0 .425.332.769.742.769.409 0 .741-.344.741-.769 0-.425-.332-.769-.741-.769zm-5.75 6.036c-1.216 0-2.202-1.023-2.202-2.284s.986-2.283 2.202-2.283c1.215 0 2.201 1.022 2.201 2.283s-.986 2.284-2.201 2.284zm0-3.052c-.41 0-.742.343-.742.768s.332.77.742.77c.409 0 .741-.345.741-.77 0-.425-.332-.768-.741-.768zm-15.094 1.514c0 .824-.644 1.491-1.438 1.491H11.5c-.794 0-1.438-.667-1.438-1.491-.794 0-1.437-.668-1.437-1.492V10.44c0-.824.643-1.491 1.437-1.491 0-.825.644-1.492 1.438-1.492h1.437c.794 0 1.438.667 1.438 1.492.794 0 1.437.667 1.437 1.491v1.491c0 .824-.643 1.492-1.437 1.492zm-.719-2.983h-.719v-.746c0-.411-.321-.745-.718-.745-.397 0-.719.334-.719.745v.746h-.719c-.397 0-.719.334-.719.745 0 .412.322.746.719.746h.719v.746c0 .412.322.746.719.746.397 0 .718-.334.718-.746v-.746h.719c.397 0 .719-.334.719-.746 0-.411-.322-.745-.719-.745z"/>
</svg>
