<svg xmlns="http://www.w3.org/2000/svg" width="41" height="43">
    <defs>
        <linearGradient id="bs0xl1sawa" x1="0%" x2="73.135%" y1="68.2%" y2="0%">
            <stop offset="0%" stop-color="#6AF4F9"/>
            <stop offset="100%" stop-color="#2EB0EC"/>
        </linearGradient>
    </defs>
    <path fill="#FFF" fill-rule="evenodd" d="M38.267 25.544v14.77c0 1.483-1.224 2.685-2.734 2.685H5.466c-1.509 0-2.733-1.202-2.733-2.685v-14.77C1.224 25.544 0 24.342 0 22.859v-6.714c0-1.483 1.224-2.686 2.733-2.686h12.88c-2.496-.171-4.867-.997-6.88-2.354.036-.011.068-.029.103-.041C7.11 10.102 5.772 8.48 5.29 6.43c-.107-.455-.152-.909-.169-1.36-.023-.258-.023-.513-.001-.766l.002-.026c.018-.194.042-.384.085-.572.079-.493.19-.977.367-1.438.282-.294.596-.557.927-.803C7.068.933 7.771.526 8.591.34c.097-.022.194-.02.291-.036.127-.036.245-.085.375-.114 2.656-.604 5.286.313 7.018 2.145.002-.013.007-.025.009-.039 1.821 1.753 3.179 4.011 3.796 6.632.04.169.046.336.079.503h.682c.033-.167.039-.334.079-.503.616-2.621 1.975-4.879 3.796-6.632.002.014.007.026.009.039C26.456.503 29.087-.414 31.743.19c.13.029.248.078.374.114.098.016.194.014.292.036.82.186 1.522.593 2.09 1.125.331.246.645.509.927.803.176.461.288.945.367 1.438.043.188.067.378.085.572l.002.026c.021.253.022.508-.002.766-.016.451-.061.905-.168 1.36-.482 2.05-1.82 3.672-3.546 4.634.035.012.067.03.102.041-2.013 1.357-4.383 2.183-6.879 2.354h12.88c1.509 0 2.733 1.203 2.733 2.686v6.714c0 1.483-1.224 2.685-2.733 2.685zm-15.034 14.77h10.934c.754 0 1.366-.601 1.366-1.343V25.544c0-.741-.612-1.343-1.366-1.343H23.233v16.113zM16.738 8.178c-.48-1.439-1.36-2.718-2.478-3.748 0 .007-.002.013-.003.02-1.071-1.067-2.605-1.687-4.078-1.49-.072.009-.136.031-.206.043-.054.005-.109-.001-.163.006-.455.061-.832.246-1.127.505-.175.116-.339.242-.484.386-.077.24-.116.496-.136.757-.015.099-.02.2-.02.303v.015c0 .134.013.272.039.412.032.242.079.489.163.739.375 1.125 1.212 2.061 2.237 2.662-.02.004-.037.012-.056.018 1.849 1.265 4.11 1.918 6.291 1.626.138-.018.269-.049.403-.075-.012-.703-.135-1.435-.382-2.179zm1.029 5.259c-.118.01-.235.016-.352.022h.352v-.022zm0 2.708H4.1c-.755 0-1.367.601-1.367 1.343v4.028c0 .741.612 1.343 1.367 1.343h13.667v-6.714zm0 8.056H6.833c-.755 0-1.367.602-1.367 1.343v13.427c0 .742.612 1.343 1.367 1.343h10.934V24.201zm1.366-10.742v28.197h2.734V13.459h-2.734zm11.441-4.653c-.02-.006-.037-.014-.056-.018 1.025-.601 1.862-1.537 2.237-2.662.083-.25.131-.497.163-.739.026-.14.038-.278.039-.412V4.96c-.001-.103-.005-.204-.02-.303-.02-.261-.059-.517-.136-.757-.145-.144-.31-.27-.484-.386-.295-.259-.673-.444-1.127-.505-.054-.007-.109-.001-.163-.006-.07-.012-.134-.034-.206-.043-1.473-.197-3.007.423-4.078 1.49-.001-.007-.003-.013-.003-.02-1.118 1.03-1.999 2.309-2.478 3.748-.248.744-.37 1.476-.382 2.179.134.026.264.057.403.075 2.181.292 4.442-.361 6.291-1.626zm-7.341 4.631v.022h.351c-.117-.006-.233-.012-.351-.022zm15.034 4.051c0-.742-.612-1.343-1.367-1.343H23.233v6.714H36.9c.755 0 1.367-.602 1.367-1.343v-4.028z"/>
    <path fill="url(#bs0xl1sawa)" d="M38.267 25.544v14.77c0 1.483-1.224 2.685-2.734 2.685H5.466c-1.509 0-2.733-1.202-2.733-2.685v-14.77C1.224 25.544 0 24.342 0 22.859v-6.714c0-1.483 1.224-2.686 2.733-2.686h12.88c-2.496-.171-4.867-.997-6.88-2.354.036-.011.068-.029.103-.041C7.11 10.102 5.772 8.48 5.29 6.43c-.107-.455-.152-.909-.169-1.36-.023-.258-.023-.513-.001-.766l.002-.026c.018-.194.042-.384.085-.572.079-.493.19-.977.367-1.438.282-.294.596-.557.927-.803C7.068.933 7.771.526 8.591.34c.097-.022.194-.02.291-.036.127-.036.245-.085.375-.114 2.656-.604 5.286.313 7.018 2.145.002-.013.007-.025.009-.039 1.821 1.753 3.179 4.011 3.796 6.632.04.169.046.336.079.503h.682c.033-.167.039-.334.079-.503.616-2.621 1.975-4.879 3.796-6.632.002.014.007.026.009.039C26.456.503 29.087-.414 31.743.19c.13.029.248.078.374.114.098.016.194.014.292.036.82.186 1.522.593 2.09 1.125.331.246.645.509.927.803.176.461.288.945.367 1.438.043.188.067.378.085.572l.002.026c.021.253.022.508-.002.766-.016.451-.061.905-.168 1.36-.482 2.05-1.82 3.672-3.546 4.634.035.012.067.03.102.041-2.013 1.357-4.383 2.183-6.879 2.354h12.88c1.509 0 2.733 1.203 2.733 2.686v6.714c0 1.483-1.224 2.685-2.733 2.685zm-15.034 14.77h10.934c.754 0 1.366-.601 1.366-1.343V25.544c0-.741-.612-1.343-1.366-1.343H23.233v16.113zM16.738 8.178c-.48-1.439-1.36-2.718-2.478-3.748 0 .007-.002.013-.003.02-1.071-1.067-2.605-1.687-4.078-1.49-.072.009-.136.031-.206.043-.054.005-.109-.001-.163.006-.455.061-.832.246-1.127.505-.175.116-.339.242-.484.386-.077.24-.116.496-.136.757-.015.099-.02.2-.02.303v.015c0 .134.013.272.039.412.032.242.079.489.163.739.375 1.125 1.212 2.061 2.237 2.662-.02.004-.037.012-.056.018 1.849 1.265 4.11 1.918 6.291 1.626.138-.018.269-.049.403-.075-.012-.703-.135-1.435-.382-2.179zm1.029 5.259c-.118.01-.235.016-.352.022h.352v-.022zm0 2.708H4.1c-.755 0-1.367.601-1.367 1.343v4.028c0 .741.612 1.343 1.367 1.343h13.667v-6.714zm0 8.056H6.833c-.755 0-1.367.602-1.367 1.343v13.427c0 .742.612 1.343 1.367 1.343h10.934V24.201zm1.366-10.742v28.197h2.734V13.459h-2.734zm11.441-4.653c-.02-.006-.037-.014-.056-.018 1.025-.601 1.862-1.537 2.237-2.662.083-.25.131-.497.163-.739.026-.14.038-.278.039-.412V4.96c-.001-.103-.005-.204-.02-.303-.02-.261-.059-.517-.136-.757-.145-.144-.31-.27-.484-.386-.295-.259-.673-.444-1.127-.505-.054-.007-.109-.001-.163-.006-.07-.012-.134-.034-.206-.043-1.473-.197-3.007.423-4.078 1.49-.001-.007-.003-.013-.003-.02-1.118 1.03-1.999 2.309-2.478 3.748-.248.744-.37 1.476-.382 2.179.134.026.264.057.403.075 2.181.292 4.442-.361 6.291-1.626zm-7.341 4.631v.022h.351c-.117-.006-.233-.012-.351-.022zm15.034 4.051c0-.742-.612-1.343-1.367-1.343H23.233v6.714H36.9c.755 0 1.367-.602 1.367-1.343v-4.028z"/>
</svg>
