<svg xmlns="http://www.w3.org/2000/svg" width="34" height="34">
    <defs>
        <linearGradient id="os6triyzba" x1="0%" x2="73.135%" y1="68.2%" y2="0%">
            <stop offset="0%" stop-color="#6AF4F9"/>
            <stop offset="100%" stop-color="#2EB0EC"/>
        </linearGradient>
    </defs>
    <path fill="#FFF" fill-rule="evenodd" d="M32.51 31.095l-1.414 1.414c-.781.782-2.047.782-2.828 0l-5.389-5.389L19 30.999c-.75.75-2 .105-2-1v-11c0-1.104.895-2 2-2h11c1.104 0 1.75 1.25 1 2l-3.879 3.879 5.389 5.389c.781.781.781 2.047 0 2.828zm-1.914-1.914l-6.389-6.389L27 19.999c.5-.5.052-1-.5-1H20c-.552 0-1 .448-1 1v6.5c0 .552.448 1.052 1 .5l2.793-2.792 6.389 6.388c.39.391 1.024.391 1.414 0 .391-.39.391-1.023 0-1.414zM15 16.999H4c-1.105 0-1.75-1.25-1-1.999l3.879-3.879-5.39-5.389c-.781-.782-.781-2.048 0-2.829l1.415-1.414c.781-.781 2.047-.781 2.828 0l5.389 5.389L15 2.999c.75-.75 2-.105 2 1V15c0 1.104-.896 1.999-2 1.999zm0-9.5c0-.551-.448-1.052-1-.5l-2.793 2.793-6.389-6.389c-.391-.39-1.024-.39-1.414 0-.391.39-.391 1.024 0 1.414l6.389 6.389L7 13.999c-.5.5-.052 1.001.5 1.001H14c.552 0 1-.449 1-1.001v-6.5z"/>
    <path fill="url(#os6triyzba)" d="M32.51 31.095l-1.414 1.414c-.781.782-2.047.782-2.828 0l-5.389-5.389L19 30.999c-.75.75-2 .105-2-1v-11c0-1.104.895-2 2-2h11c1.104 0 1.75 1.25 1 2l-3.879 3.879 5.389 5.389c.781.781.781 2.047 0 2.828zm-1.914-1.914l-6.389-6.389L27 19.999c.5-.5.052-1-.5-1H20c-.552 0-1 .448-1 1v6.5c0 .552.448 1.052 1 .5l2.793-2.792 6.389 6.388c.39.391 1.024.391 1.414 0 .391-.39.391-1.023 0-1.414zM15 16.999H4c-1.105 0-1.75-1.25-1-1.999l3.879-3.879-5.39-5.389c-.781-.782-.781-2.048 0-2.829l1.415-1.414c.781-.781 2.047-.781 2.828 0l5.389 5.389L15 2.999c.75-.75 2-.105 2 1V15c0 1.104-.896 1.999-2 1.999zm0-9.5c0-.551-.448-1.052-1-.5l-2.793 2.793-6.389-6.389c-.391-.39-1.024-.39-1.414 0-.391.39-.391 1.024 0 1.414l6.389 6.389L7 13.999c-.5.5-.052 1.001.5 1.001H14c.552 0 1-.449 1-1.001v-6.5z"/>
</svg>
